<svg width="1802" height="489" xmlns="http://www.w3.org/2000/svg" xmlns:xlink="http://www.w3.org/1999/xlink" xml:space="preserve" overflow="hidden"><defs><clipPath id="clip0"><rect x="143" y="1766" width="1802" height="489"/></clipPath></defs><g clip-path="url(#clip0)" transform="translate(-143 -1766)"><path d="M1912 1927 1800.71 2088.88C1607.94 2086.14 1450.77 2093 1258 2093L1370.6 1928.83C1551.07 1928.22 1731.53 1927.61 1912 1927Z" fill="#2F8DB3" fill-rule="evenodd"/><path d="M1354 1930 1242.71 2091.88C1049.94 2089.14 892.767 2096 700 2096L812.603 1931.83C993.068 1931.22 1173.53 1930.61 1354 1930Z" fill="#5CA4C0" fill-rule="evenodd"/><path d="M797 1933 685.711 2094.88C492.945 2092.14 335.767 2099 143 2099L255.603 1934.83C436.069 1934.22 616.534 1933.61 797 1933Z" fill="#C6E6F2" fill-rule="evenodd"/><path d="M0 0 172.632 101.862" stroke="#FFFFFF" stroke-width="10.3125" stroke-miterlimit="8" fill="none" fill-rule="evenodd" transform="matrix(6.12323e-17 1 1 -6.12323e-17 1542 1927)"/><path d="M0 0 172.632 101.862" stroke="#FFFFFF" stroke-width="10.3125" stroke-miterlimit="8" fill="none" fill-rule="evenodd" transform="matrix(6.12323e-17 1 1 -6.12323e-17 1051 1924)"/><path d="M0 0 172.632 101.862" stroke="#FFFFFF" stroke-width="10.3125" stroke-miterlimit="8" fill="none" fill-rule="evenodd" transform="matrix(6.12323e-17 1 1 -6.12323e-17 370 1930)"/><path d="M1817.79 2114.56 1944.24 2144.67 1912.22 2254.55 1796.79 2228.98 1817.79 2114.56Z" fill="#003233" fill-rule="evenodd" fill-opacity="0.929412"/><path d="M1944.82 1881.99 1834.67 1916.66 1802.51 1808.09 1912.92 1767.32 1944.82 1881.99Z" fill="#003233" fill-rule="evenodd" fill-opacity="0.929412"/><path d="M1911 1766 1911 2254 1792.91 2232.59 1791 1788.77 1911 1766Z" fill="#003233" fill-rule="evenodd"/></g></svg>